<?xml version="1.0" encoding="utf-8"?>
<!-- Generator: Adobe Illustrator 28.3.0, SVG Export Plug-In . SVG Version: 6.00 Build 0)  -->
<svg version="1.1" id="Capa_1" xmlns="http://www.w3.org/2000/svg" xmlns:xlink="http://www.w3.org/1999/xlink" x="0px" y="0px"
	 viewBox="0 0 32 32" style="enable-background:new 0 0 32 32;" xml:space="preserve">
<style type="text/css">
	.st0{fill:#FFFFFF;}
</style>
<g>
	<path class="st0" d="M31.4,9.6c0-1.6-0.3-2.8-0.7-3.8c-0.4-1-0.9-1.9-1.8-2.7c-0.9-0.9-1.7-1.4-2.7-1.8c-1-0.4-2.1-0.7-3.8-0.7
		c-1.5-0.2-2.1-0.2-6.3-0.2c-4.3,0-4.8,0-6.4,0.1C8,0.5,6.8,0.9,5.9,1.2C4.9,1.6,4,2.2,3.1,3C2.3,3.9,1.8,4.7,1.3,5.8
		c-0.4,1-0.7,2.1-0.7,3.8c-0.2,1.8-0.2,2.3-0.2,6.5c0,4.3,0,4.8,0.1,6.4c0,1.6,0.3,2.8,0.7,3.8c0.4,1,0.9,1.9,1.8,2.7
		c0.9,0.9,1.7,1.4,2.7,1.8c1,0.4,2.1,0.7,3.8,0.7c1.6,0,2.2,0.1,6.4,0.1c4.2,0,4.8,0,6.4-0.1c1.6,0,2.8-0.3,3.8-0.7
		c1-0.4,1.9-0.9,2.7-1.8c0.9-0.9,1.4-1.7,1.8-2.7c0.3-1,0.7-2.1,0.7-3.8c0-1.6,0.1-2.2,0.1-6.4C31.5,11.8,31.5,11.2,31.4,9.6z
		 M28.9,22.5c0,1.5-0.3,2.3-0.5,2.9c-0.3,0.8-0.6,1.3-1.2,1.8c-0.5,0.5-1,0.9-1.8,1.2c-0.5,0.3-1.4,0.4-2.9,0.5
		c-1.6,0-2.1,0.1-6.3,0.1c-4.2,0-4.6,0-6.3-0.1c-1.5,0-2.3-0.3-2.9-0.5c-0.8-0.3-1.3-0.6-1.8-1.2c-0.5-0.5-0.9-1-1.2-1.8
		c-0.2-0.5-0.4-1.4-0.5-2.9c0-1.6-0.1-2.1-0.1-6.3c0-4.2,0-4.6,0.1-6.3c0-1.5,0.3-2.3,0.5-2.9C4.1,6.1,4.4,5.6,5,5.1
		c0.5-0.5,1-0.9,1.8-1.2c0.5-0.3,1.4-0.4,2.9-0.5c1.5,0,2,0,4.9-0.1h1.5c4.2,0,4.6,0,6.3,0.1c1.5,0,2.3,0.3,2.9,0.5
		c0.8,0.3,1.3,0.6,1.8,1.2c0.5,0.5,0.9,1,1.2,1.8c0.2,0.5,0.4,1.4,0.5,2.9c0,1.6,0.1,2.1,0.1,6.3C28.9,20.3,28.9,20.8,28.9,22.5z"/>
	<path class="st0" d="M19,11.1h2.5V7.3h-3.2v0c-4.2,0.2-5.1,2.5-5.1,5h0v2.6h-2.5v3.8h2.5v11.5h4.5V18.7h3.2l0.6-3.8h-3.9v-2.3
		C17.7,11.7,18.2,11.1,19,11.1z"/>
</g>
</svg>
