<svg width="32" height="33" viewBox="0 0 32 33" fill="none" xmlns="http://www.w3.org/2000/svg">
<path d="M16 10.4336C14.8133 10.4336 13.6533 10.7855 12.6666 11.4448C11.6799 12.1041 10.9108 13.0411 10.4567 14.1375C10.0026 15.2338 9.88378 16.4402 10.1153 17.6041C10.3468 18.768 10.9182 19.8371 11.7574 20.6762C12.5965 21.5154 13.6656 22.0868 14.8295 22.3183C15.9933 22.5498 17.1997 22.431 18.2961 21.9769C19.3925 21.5227 20.3295 20.7537 20.9888 19.767C21.6481 18.7803 22 17.6203 22 16.4336C21.9983 14.8428 21.3657 13.3176 20.2408 12.1928C19.116 11.0679 17.5908 10.4352 16 10.4336ZM16 19.4336C15.4067 19.4336 14.8266 19.2576 14.3333 18.928C13.8399 18.5984 13.4554 18.1298 13.2284 17.5816C13.0013 17.0335 12.9419 16.4303 13.0576 15.8483C13.1734 15.2664 13.4591 14.7318 13.8787 14.3123C14.2982 13.8927 14.8328 13.607 15.4147 13.4912C15.9967 13.3755 16.5999 13.4349 17.1481 13.662C17.6962 13.889 18.1648 14.2735 18.4944 14.7669C18.8241 15.2602 19 15.8403 19 16.4336C19 17.2292 18.6839 17.9923 18.1213 18.5549C17.5587 19.1175 16.7956 19.4336 16 19.4336ZM22 2.93359H10C8.01159 2.93591 6.10528 3.72683 4.69926 5.13285C3.29324 6.53887 2.50232 8.44518 2.5 10.4336V22.4336C2.50232 24.422 3.29324 26.3283 4.69926 27.7343C6.10528 29.1404 8.01159 29.9313 10 29.9336H22C23.9884 29.9313 25.8947 29.1404 27.3007 27.7343C28.7068 26.3283 29.4977 24.422 29.5 22.4336V10.4336C29.4977 8.44518 28.7068 6.53887 27.3007 5.13285C25.8947 3.72683 23.9884 2.93591 22 2.93359ZM26.5 22.4336C26.5 23.6271 26.0259 24.7717 25.182 25.6156C24.3381 26.4595 23.1935 26.9336 22 26.9336H10C8.80653 26.9336 7.66193 26.4595 6.81802 25.6156C5.97411 24.7717 5.5 23.6271 5.5 22.4336V10.4336C5.5 9.24012 5.97411 8.09553 6.81802 7.25161C7.66193 6.4077 8.80653 5.93359 10 5.93359H22C23.1935 5.93359 24.3381 6.4077 25.182 7.25161C26.0259 8.09553 26.5 9.24012 26.5 10.4336V22.4336ZM24.5 9.93359C24.5 10.3292 24.3827 10.7158 24.1629 11.0447C23.9432 11.3736 23.6308 11.63 23.2654 11.7814C22.8999 11.9327 22.4978 11.9723 22.1098 11.8952C21.7219 11.818 21.3655 11.6275 21.0858 11.3478C20.8061 11.0681 20.6156 10.7117 20.5384 10.3238C20.4613 9.93581 20.5009 9.53368 20.6522 9.16823C20.8036 8.80277 21.06 8.49042 21.3889 8.27065C21.7178 8.05089 22.1044 7.93359 22.5 7.93359C23.0304 7.93359 23.5391 8.14431 23.9142 8.51938C24.2893 8.89445 24.5 9.40316 24.5 9.93359Z" fill="#FAFBFF"/>
</svg>
