<?xml version="1.0" encoding="utf-8"?>
<!-- Generator: Adobe Illustrator 28.3.0, SVG Export Plug-In . SVG Version: 6.00 Build 0)  -->
<svg version="1.1" id="Capa_1" xmlns="http://www.w3.org/2000/svg" xmlns:xlink="http://www.w3.org/1999/xlink" x="0px" y="0px"
	 viewBox="0 0 32 32" style="enable-background:new 0 0 32 32;" xml:space="preserve">
<style type="text/css">
	.st0{fill:#FFFFFF;}
</style>
<g>
	<g>
		<g>
			<path class="st0" d="M16.1,0.5c-4.3,0-4.8,0-6.4,0.1C8,0.6,6.8,1,5.9,1.3C4.9,1.7,4,2.2,3.2,3.1C2.3,4,1.8,4.8,1.4,5.8
				C0.9,6.9,0.7,8,0.7,9.6c-0.2,1.8-0.2,2.3-0.2,6.5c0,4.3,0,4.8,0.1,6.4c0,1.6,0.3,2.8,0.7,3.8c0.4,1,0.9,1.9,1.8,2.7
				c0.9,0.9,1.7,1.4,2.7,1.8c1,0.4,2.1,0.7,3.8,0.7s2.2,0.1,6.4,0.1c4.2,0,4.8,0,6.4-0.1c1.6,0,2.8-0.3,3.8-0.7
				c1-0.4,1.9-0.9,2.7-1.8c0.9-0.9,1.4-1.7,1.8-2.7c0.3-1,0.7-2.1,0.7-3.8s0.1-2.2,0.1-6.4c0-4.3,0-4.8-0.1-6.4
				c0-1.6-0.3-2.8-0.7-3.8c-0.4-1-0.9-1.9-1.8-2.7c-0.9-0.9-1.7-1.4-2.7-1.8c-1-0.4-2.1-0.7-3.8-0.7C20.9,0.5,20.4,0.5,16.1,0.5z
				 M14.7,3.4c0.4,0,0.9,0,1.4,0c4.2,0,4.6,0,6.3,0.1c1.5,0,2.3,0.3,2.9,0.5c0.8,0.3,1.3,0.6,1.8,1.2c0.5,0.5,0.9,1,1.2,1.8
				c0.2,0.5,0.4,1.4,0.5,2.9c0,1.6,0.1,2.1,0.1,6.3s0,4.6-0.1,6.3c0,1.5-0.3,2.3-0.5,2.9c-0.3,0.8-0.6,1.3-1.2,1.8
				c-0.5,0.5-1,0.9-1.8,1.2c-0.5,0.3-1.4,0.4-2.9,0.5c-1.6,0-2.1,0.1-6.3,0.1c-4.2,0-4.6,0-6.3-0.1c-1.5,0-2.3-0.3-2.9-0.5
				c-0.8-0.3-1.3-0.6-1.8-1.2c-0.5-0.5-0.9-1-1.2-1.8c-0.2-0.5-0.4-1.4-0.5-2.9c0-1.6-0.1-2.1-0.1-6.3s0-4.6,0.1-6.3
				c0-1.5,0.3-2.3,0.5-2.9C4.1,6.2,4.4,5.7,5,5.2c0.5-0.5,1-0.9,1.8-1.2c0.5-0.3,1.4-0.4,2.9-0.5C11.2,3.4,11.7,3.4,14.7,3.4
				L14.7,3.4z M16.1,8.2c-4.5,0-8.1,3.6-8.1,8.1s3.6,8.1,8.1,8.1s8.1-3.6,8.1-8.1S20.6,8.2,16.1,8.2z M16.1,11
				c2.9,0,5.2,2.3,5.2,5.2s-2.3,5.2-5.2,5.2s-5.2-2.3-5.2-5.2S13.2,11,16.1,11z"/>
		</g>
	</g>
	<circle class="st0" cx="24.4" cy="7.5" r="1.6"/>
</g>
</svg>
