<svg width="32" height="33" viewBox="0 0 32 33" fill="none" xmlns="http://www.w3.org/2000/svg">
<path fill-rule="evenodd" clip-rule="evenodd" d="M11.4249 24.4336V13.7398H7.99365V24.4336H11.4249ZM9.8374 12.1211C10.9812 12.1211 11.6937 11.3023 11.6937 10.2773C11.6749 9.23359 10.9812 8.43359 9.85615 8.43359C8.73115 8.43359 7.9999 9.23359 7.9999 10.2773C7.9999 11.3023 8.7124 12.1211 9.8124 12.1211H9.8374Z" fill="#FAFBFF"/>
<path fill-rule="evenodd" clip-rule="evenodd" d="M20.0375 13.4961C18.2188 13.4961 17.4375 14.5211 16.9375 15.2336V13.7461H13.5V24.4336H16.9375V18.3461C16.9375 18.0336 16.9625 17.7211 17.0562 17.5023C17.3062 16.8773 17.8688 16.2336 18.8188 16.2336C20.0625 16.2336 20.5625 17.1898 20.5625 18.5898V24.4336H24V18.1898C24 14.9836 22.3 13.4961 20.0375 13.4961Z" fill="#FAFBFF"/>
<path d="M26.075 4.43359H6.05C4.95625 4.43359 4 5.22109 4 6.30234V26.3711C4 27.4586 4.95625 28.4273 6.05 28.4273H26.0688C27.1688 28.4273 27.9937 27.4523 27.9937 26.3711V6.30234C28 5.22109 27.1688 4.43359 26.075 4.43359ZM25.875 26.4336H6.19375C6.08125 26.4336 6 26.3461 6 26.2398V6.55859C6 6.48984 6.0625 6.43359 6.125 6.43359H25.875C25.9375 6.43359 26 6.49609 26 6.55859V26.3086C26 26.3648 25.9438 26.4336 25.875 26.4336Z" fill="#FAFBFF"/>
</svg>
