<?xml version="1.0" encoding="utf-8"?>
<!-- Generator: Adobe Illustrator 28.3.0, SVG Export Plug-In . SVG Version: 6.00 Build 0)  -->
<svg version="1.1" id="Capa_1" xmlns="http://www.w3.org/2000/svg" xmlns:xlink="http://www.w3.org/1999/xlink" x="0px" y="0px"
	 viewBox="0 0 100 35" style="enable-background:new 0 0 100 35;" xml:space="preserve">
<style type="text/css">
	.st0{fill:#FFFFFF;}
</style>
<g>
	<path class="st0" d="M13.1,27.4c1.1,0,2.1-0.3,3-0.8v6.5c-1,0.2-2,0.4-3,0.4c-5.3,0-9.9-3.4-11.5-8.2c0-0.1-0.1-0.2-0.1-0.3
		c-0.1-0.5-0.3-1-0.4-1.5c0-0.3-0.1-0.5-0.1-0.8c0-0.2,0-0.3,0-0.5c0-0.2,0-0.3,0-0.5c0-0.1,0-0.2,0-0.3V9.1c1.7,0,3.2,0.7,4.3,1.8
		c0.2,0.2,0.4,0.4,0.6,0.6c0,0,0,0,0,0c0.8,1,1.2,2.3,1.2,3.6v6.1c0,0.1,0,0.3,0,0.4c0,0.1,0,0.1,0,0.2c0,0.2,0.1,0.4,0.1,0.6
		c0,0.2,0.1,0.4,0.1,0.6c0,0,0,0,0,0c0.1,0.2,0.1,0.4,0.2,0.6c0,0,0,0,0,0c0.1,0.2,0.2,0.4,0.3,0.5c0,0,0,0,0,0
		C8.8,26.1,10.8,27.4,13.1,27.4z"/>
	<g>
		<g>
			<g>
				<path class="st0" d="M31.3,33.4l3.3-8.2h1.2l-3.2,8.2H31.3z M32.8,31.2v-1h4.7v1H32.8z M37.8,33.4l-3.2-8.2h1.2l3.3,8.2H37.8z"
					/>
				<path class="st0" d="M42.7,33.6c-0.4,0-0.8,0-1.2-0.2c-0.4-0.1-0.7-0.2-0.9-0.4c-0.3-0.2-0.5-0.4-0.6-0.6
					c-0.2-0.2-0.3-0.4-0.4-0.7l1.1-0.4c0.1,0.3,0.3,0.6,0.7,0.8c0.3,0.2,0.7,0.4,1.2,0.4c0.6,0,1-0.1,1.4-0.3
					c0.3-0.2,0.5-0.5,0.5-0.9c0-0.4-0.1-0.6-0.4-0.9s-0.7-0.4-1.1-0.5l-0.9-0.2c-0.4-0.1-0.7-0.2-1-0.4c-0.3-0.2-0.5-0.4-0.7-0.7
					c-0.2-0.3-0.3-0.6-0.3-1c0-0.7,0.2-1.3,0.7-1.8c0.5-0.4,1.2-0.6,2.1-0.6c0.5,0,1,0.1,1.4,0.3c0.4,0.2,0.7,0.4,1,0.7
					s0.4,0.6,0.5,0.9l-1.1,0.4c-0.1-0.4-0.4-0.6-0.7-0.8s-0.7-0.3-1.2-0.3c-0.5,0-0.9,0.1-1.2,0.4c-0.3,0.2-0.4,0.6-0.4,1
					c0,0.3,0.1,0.6,0.3,0.8c0.2,0.2,0.5,0.3,0.9,0.4l0.9,0.2c0.8,0.2,1.4,0.5,1.8,0.9c0.4,0.4,0.6,0.9,0.6,1.4
					c0,0.4-0.1,0.8-0.3,1.2s-0.5,0.6-1,0.8S43.3,33.6,42.7,33.6z"/>
				<path class="st0" d="M49.6,33.6c-0.4,0-0.8,0-1.2-0.2c-0.4-0.1-0.7-0.2-0.9-0.4c-0.3-0.2-0.5-0.4-0.6-0.6
					c-0.2-0.2-0.3-0.4-0.4-0.7l1.1-0.4c0.1,0.3,0.3,0.6,0.7,0.8c0.3,0.2,0.7,0.4,1.2,0.4c0.6,0,1-0.1,1.4-0.3
					c0.3-0.2,0.5-0.5,0.5-0.9c0-0.4-0.1-0.6-0.4-0.9s-0.7-0.4-1.1-0.5l-0.9-0.2c-0.4-0.1-0.7-0.2-1-0.4c-0.3-0.2-0.5-0.4-0.7-0.7
					c-0.2-0.3-0.3-0.6-0.3-1c0-0.7,0.2-1.3,0.7-1.8c0.5-0.4,1.2-0.6,2.1-0.6c0.5,0,1,0.1,1.4,0.3c0.4,0.2,0.7,0.4,1,0.7
					s0.4,0.6,0.5,0.9l-1.1,0.4c-0.1-0.4-0.4-0.6-0.7-0.8s-0.7-0.3-1.2-0.3c-0.5,0-0.9,0.1-1.2,0.4c-0.3,0.2-0.4,0.6-0.4,1
					c0,0.3,0.1,0.6,0.3,0.8c0.2,0.2,0.5,0.3,0.9,0.4l0.9,0.2c0.8,0.2,1.4,0.5,1.8,0.9c0.4,0.4,0.6,0.9,0.6,1.4
					c0,0.4-0.1,0.8-0.3,1.2s-0.5,0.6-1,0.8S50.2,33.6,49.6,33.6z"/>
				<path class="st0" d="M53.9,33.4v-8.2h1.1v8.2H53.9z"/>
				<path class="st0" d="M59.6,33.6c-0.4,0-0.8,0-1.2-0.2c-0.4-0.1-0.7-0.2-0.9-0.4c-0.3-0.2-0.5-0.4-0.6-0.6s-0.3-0.4-0.4-0.7
					l1.1-0.4c0.1,0.3,0.3,0.6,0.7,0.8c0.3,0.2,0.7,0.4,1.2,0.4c0.6,0,1-0.1,1.4-0.3c0.3-0.2,0.5-0.5,0.5-0.9c0-0.4-0.1-0.6-0.4-0.9
					c-0.3-0.2-0.7-0.4-1.1-0.5l-0.9-0.2c-0.4-0.1-0.7-0.2-1-0.4c-0.3-0.2-0.6-0.4-0.7-0.7s-0.3-0.6-0.3-1c0-0.7,0.2-1.3,0.7-1.8
					c0.5-0.4,1.2-0.6,2.1-0.6c0.5,0,1,0.1,1.4,0.3c0.4,0.2,0.7,0.4,1,0.7s0.4,0.6,0.5,0.9l-1.1,0.4c-0.1-0.4-0.4-0.6-0.7-0.8
					c-0.3-0.2-0.7-0.3-1.2-0.3c-0.5,0-0.9,0.1-1.2,0.4c-0.3,0.2-0.4,0.6-0.4,1c0,0.3,0.1,0.6,0.3,0.8c0.2,0.2,0.5,0.3,0.9,0.4
					l0.9,0.2c0.8,0.2,1.4,0.5,1.8,0.9c0.4,0.4,0.6,0.9,0.6,1.4c0,0.4-0.1,0.8-0.3,1.2s-0.5,0.6-1,0.8S60.2,33.6,59.6,33.6z"/>
				<path class="st0" d="M65.6,33.4v-7.1H63v-1.1h6.3v1.1h-2.6v7.1H65.6z"/>
				<path class="st0" d="M69.3,33.4l3.3-8.2h1.2l-3.2,8.2H69.3z M70.9,31.2v-1h4.7v1H70.9z M75.9,33.4l-3.2-8.2h1.2l3.3,8.2H75.9z"
					/>
				<path class="st0" d="M78.1,33.4v-8.2h1.2l4.6,6.3v-6.3H85v8.2h-1.2l-4.7-6.3v6.3H78.1z"/>
				<path class="st0" d="M88.6,33.4v-7.1H86v-1.1h6.3v1.1h-2.6v7.1H88.6z"/>
				<path class="st0" d="M95.9,33.6c-0.4,0-0.8,0-1.2-0.2c-0.4-0.1-0.7-0.2-0.9-0.4c-0.3-0.2-0.5-0.4-0.6-0.6s-0.3-0.4-0.4-0.7
					l1.1-0.4c0.1,0.3,0.3,0.6,0.7,0.8c0.3,0.2,0.7,0.4,1.2,0.4c0.6,0,1-0.1,1.4-0.3c0.3-0.2,0.5-0.5,0.5-0.9c0-0.4-0.1-0.6-0.4-0.9
					c-0.3-0.2-0.7-0.4-1.1-0.5l-0.9-0.2c-0.4-0.1-0.7-0.2-1-0.4c-0.3-0.2-0.6-0.4-0.7-0.7s-0.3-0.6-0.3-1c0-0.7,0.2-1.3,0.7-1.8
					c0.5-0.4,1.2-0.6,2.1-0.6c0.5,0,1,0.1,1.4,0.3c0.4,0.2,0.7,0.4,1,0.7s0.4,0.6,0.5,0.9l-1.1,0.4c-0.1-0.4-0.4-0.6-0.7-0.8
					c-0.3-0.2-0.7-0.3-1.2-0.3c-0.5,0-0.9,0.1-1.2,0.4c-0.3,0.2-0.4,0.6-0.4,1c0,0.3,0.1,0.6,0.3,0.8c0.2,0.2,0.5,0.3,0.9,0.4
					l0.9,0.2c0.8,0.2,1.4,0.5,1.8,0.9c0.4,0.4,0.6,0.9,0.6,1.4c0,0.4-0.1,0.8-0.3,1.2s-0.5,0.6-1,0.8S96.5,33.6,95.9,33.6z"/>
			</g>
		</g>
	</g>
	<path class="st0" d="M25.2,21.3v12.2c-1.7,0-3.2-0.7-4.3-1.8c-0.2-0.2-0.4-0.4-0.6-0.6c0,0,0,0,0,0c0,0,0,0,0,0
		c-0.8-1-1.2-2.3-1.2-3.6v-6.1c0-0.1,0-0.3,0-0.4c0-0.2,0-0.4-0.1-0.5c0-0.2-0.1-0.4-0.1-0.6c0-0.1-0.1-0.2-0.1-0.3
		c-0.1-0.2-0.1-0.4-0.2-0.6c0,0,0,0,0,0c-0.1-0.3-0.2-0.5-0.4-0.8c0,0,0,0,0,0c-1.1-1.7-3-2.9-5.2-2.9c-1.1,0-2.1,0.3-3,0.8V9.5
		c1-0.2,2-0.4,3-0.4c5,0,9.3,3.1,11.2,7.4c0,0,0,0,0,0c0.1,0.2,0.1,0.4,0.2,0.5c0.2,0.6,0.4,1.1,0.5,1.7c0,0.1,0,0.2,0.1,0.3
		c0,0.2,0.1,0.4,0.1,0.6c0,0.1,0,0.2,0,0.2C25.2,20.4,25.2,20.8,25.2,21.3z"/>
	<path class="st0" d="M4.1,7H3.7C2.2,7,0.9,5.8,0.9,4.2V3.8C0.9,2.3,2.2,1,3.7,1h0.4c1.5,0,2.8,1.2,2.8,2.8v0.4C6.9,5.8,5.6,7,4.1,7
		z"/>
	<g>
		<g>
			<path class="st0" d="M31.3,21.3v-12h3.2v12H31.3z"/>
			<path class="st0" d="M43.2,21.5c-1.2,0-2.3-0.3-3.2-0.8s-1.6-1.3-2.2-2.2c-0.5-0.9-0.8-2-0.8-3.2s0.3-2.3,0.8-3.2
				c0.5-0.9,1.2-1.7,2.2-2.2c0.9-0.5,2-0.8,3.2-0.8c0.9,0,1.8,0.2,2.5,0.5s1.4,0.8,1.9,1.3c0.5,0.6,0.9,1.2,1.2,2l-3,1
				c-0.2-0.4-0.4-0.7-0.6-1c-0.3-0.3-0.5-0.5-0.9-0.6S43.6,12,43.2,12c-0.6,0-1.1,0.1-1.5,0.4c-0.4,0.3-0.8,0.7-1,1.2
				c-0.2,0.5-0.4,1.1-0.4,1.7c0,0.6,0.1,1.2,0.4,1.7c0.3,0.5,0.6,0.9,1,1.2c0.4,0.3,0.9,0.4,1.5,0.4c0.4,0,0.8-0.1,1.2-0.2
				c0.3-0.2,0.6-0.4,0.8-0.7c0.2-0.3,0.4-0.6,0.6-1l3,1c-0.3,0.8-0.7,1.4-1.2,2c-0.5,0.6-1.2,1-1.9,1.3C45,21.3,44.1,21.5,43.2,21.5
				z"/>
			<path class="st0" d="M57.2,21.5c-1.3,0-2.4-0.3-3.3-0.8c-1-0.5-1.7-1.3-2.3-2.2c-0.5-0.9-0.8-2-0.8-3.2c0-1.2,0.3-2.3,0.8-3.2
				c0.5-0.9,1.3-1.7,2.3-2.2c1-0.5,2.1-0.8,3.3-0.8c1.3,0,2.4,0.3,3.3,0.8c1,0.5,1.7,1.3,2.3,2.2c0.5,0.9,0.8,2,0.8,3.2
				c0,1.2-0.3,2.3-0.8,3.2c-0.5,0.9-1.3,1.7-2.2,2.2S58.4,21.5,57.2,21.5z M57.2,18.5c0.6,0,1.2-0.1,1.6-0.4
				c0.5-0.3,0.8-0.7,1.1-1.2c0.3-0.5,0.4-1.1,0.4-1.7s-0.1-1.2-0.4-1.7c-0.3-0.5-0.6-0.9-1.1-1.2c-0.5-0.3-1-0.4-1.6-0.4
				c-0.6,0-1.1,0.1-1.6,0.4c-0.5,0.3-0.8,0.7-1.1,1.2c-0.3,0.5-0.4,1.1-0.4,1.7s0.1,1.2,0.4,1.7c0.3,0.5,0.6,0.9,1.1,1.2
				C56,18.4,56.5,18.5,57.2,18.5z"/>
			<path class="st0" d="M66.2,21.3v-12h3.3l4.7,6.6V9.3h3.2v12h-3.2l-4.8-6.8v6.8H66.2z"/>
			<path class="st0" d="M80.6,21.3v-12h3.2v12H80.6z"/>
			<path class="st0" d="M92.5,21.5c-1.2,0-2.3-0.3-3.2-0.8c-0.9-0.5-1.6-1.3-2.2-2.2c-0.5-0.9-0.8-2-0.8-3.2s0.3-2.3,0.8-3.2
				c0.5-0.9,1.2-1.7,2.2-2.2c0.9-0.5,2-0.8,3.2-0.8c0.9,0,1.8,0.2,2.5,0.5c0.7,0.3,1.4,0.8,1.9,1.3c0.5,0.6,0.9,1.2,1.2,2l-3,1
				c-0.2-0.4-0.4-0.7-0.6-1c-0.3-0.3-0.5-0.5-0.9-0.6C93.3,12,92.9,12,92.5,12c-0.6,0-1.1,0.1-1.5,0.4c-0.4,0.3-0.8,0.7-1,1.2
				c-0.2,0.5-0.4,1.1-0.4,1.7c0,0.6,0.1,1.2,0.4,1.7c0.2,0.5,0.6,0.9,1,1.2c0.4,0.3,0.9,0.4,1.5,0.4c0.4,0,0.8-0.1,1.2-0.2
				c0.3-0.2,0.6-0.4,0.8-0.7c0.2-0.3,0.4-0.6,0.6-1l3,1c-0.3,0.8-0.7,1.4-1.2,2c-0.5,0.6-1.2,1-1.9,1.3
				C94.2,21.3,93.4,21.5,92.5,21.5z"/>
		</g>
	</g>
</g>
</svg>
