<svg width="40" height="41" viewBox="0 0 40 41" fill="none" xmlns="http://www.w3.org/2000/svg">
<rect y="0.397949" width="40" height="40" rx="20" fill="#455A64"/>
<path d="M15.424 25.8979V14.5379H19.28C20.4853 14.5379 21.488 14.7939 22.288 15.3059C23.0987 15.8073 23.7067 16.4899 24.112 17.3539C24.5173 18.2073 24.72 19.1566 24.72 20.2019C24.72 21.3539 24.496 22.3566 24.048 23.2099C23.6107 24.0633 22.9813 24.7246 22.16 25.1939C21.3493 25.6633 20.3893 25.8979 19.28 25.8979H15.424ZM23.6 20.2019C23.6 19.2953 23.4293 18.4899 23.088 17.7859C22.7573 17.0819 22.272 16.5326 21.632 16.1379C20.992 15.7326 20.208 15.5299 19.28 15.5299H16.544V24.9059H19.28C20.2187 24.9059 21.008 24.6979 21.648 24.2819C22.288 23.8659 22.7733 23.3059 23.104 22.6019C23.4347 21.8873 23.6 21.0873 23.6 20.2019Z" fill="white"/>
</svg>
