<svg width="40" height="41" viewBox="0 0 40 41" fill="none" xmlns="http://www.w3.org/2000/svg">
<rect y="0.397949" width="40" height="40" rx="20" fill="#309727"/>
<path d="M15.36 25.8979V14.5379H19.296C20.512 14.5379 21.5253 14.7939 22.336 15.3059C23.1573 15.8073 23.7707 16.4899 24.176 17.3539C24.5813 18.2073 24.784 19.1566 24.784 20.2019C24.784 21.3539 24.56 22.3566 24.112 23.2099C23.664 24.0633 23.0293 24.7246 22.208 25.1939C21.3867 25.6633 20.416 25.8979 19.296 25.8979H15.36ZM23.328 20.2019C23.328 19.3486 23.168 18.5913 22.848 17.9299C22.5387 17.2686 22.0853 16.7513 21.488 16.3779C20.8907 16.0046 20.16 15.8179 19.296 15.8179H16.8V24.6179H19.296C20.1707 24.6179 20.9067 24.4259 21.504 24.0419C22.1013 23.6473 22.5547 23.1193 22.864 22.4579C23.1733 21.7859 23.328 21.0339 23.328 20.2019Z" fill="white"/>
</svg>
