
<svg width="40" height="41" viewBox="0 0 40 41" fill="none" xmlns="http://www.w3.org/2000/svg">
<rect y="0.881836" width="40" height="40" rx="20" fill="#5D4037"/>
<path d="M16.56 24.6858C16.7627 24.8245 17.04 24.9578 17.392 25.0858C17.7547 25.2032 18.1813 25.2618 18.672 25.2618C19.1733 25.2618 19.584 25.1818 19.904 25.0218C20.224 24.8512 20.4693 24.6005 20.64 24.2698C20.8107 23.9285 20.928 23.4965 20.992 22.9738C21.056 22.4512 21.088 21.8325 21.088 21.1178V15.0218H22.528V20.7978C22.528 21.6405 22.4853 22.4138 22.4 23.1178C22.3147 23.8218 22.144 24.4352 21.888 24.9578C21.632 25.4698 21.248 25.8645 20.736 26.1418C20.2347 26.4192 19.5627 26.5578 18.72 26.5578C18.1867 26.5578 17.7173 26.4992 17.312 26.3818C16.9067 26.2645 16.5333 26.0885 16.192 25.8538L16.56 24.6858Z" fill="white"/>
</svg>
