<svg width="40" height="41" viewBox="0 0 40 41" fill="none" xmlns="http://www.w3.org/2000/svg">
<rect y="0.914062" width="40" height="40" rx="20" fill="#0C7A81"/>
<path d="M15.86 26.4141V15.0541H20.724C21.2253 15.0541 21.684 15.1607 22.1 15.3741C22.516 15.5767 22.8787 15.8541 23.188 16.2061C23.4973 16.5474 23.7373 16.9367 23.908 17.3741C24.0787 17.8007 24.164 18.2381 24.164 18.6861C24.164 19.2087 24.0627 19.7047 23.86 20.1741C23.668 20.6434 23.3907 21.0434 23.028 21.3741C22.676 21.7047 22.26 21.9341 21.78 22.0621L24.532 26.4141H22.9L20.308 22.3341H17.3V26.4141H15.86ZM17.3 21.0541H20.74C21.1347 21.0541 21.476 20.9474 21.764 20.7341C22.0627 20.5101 22.292 20.2167 22.452 19.8541C22.6227 19.4914 22.708 19.1021 22.708 18.6861C22.708 18.2594 22.612 17.8701 22.42 17.5181C22.228 17.1554 21.9773 16.8674 21.668 16.6541C21.3587 16.4407 21.0173 16.3341 20.644 16.3341H17.3V21.0541Z" fill="white"/>
</svg>
