<svg width="40" height="41" viewBox="0 0 40 41" fill="none" xmlns="http://www.w3.org/2000/svg">
<rect y="0.365723" width="40" height="40" rx="20" fill="#C2185B"/>
<path d="M23.032 16.8897C22.904 16.7404 22.7333 16.5964 22.52 16.4577C22.3067 16.3191 22.0667 16.1964 21.8 16.0897C21.5333 15.9724 21.24 15.8817 20.92 15.8177C20.6107 15.7431 20.2853 15.7057 19.944 15.7057C19.0693 15.7057 18.424 15.8711 18.008 16.2017C17.592 16.5324 17.384 16.9857 17.384 17.5617C17.384 17.9671 17.4907 18.2871 17.704 18.5217C17.9173 18.7564 18.2427 18.9484 18.68 19.0977C19.128 19.2471 19.6933 19.4017 20.376 19.5617C21.1653 19.7324 21.848 19.9404 22.424 20.1857C23 20.4311 23.4427 20.7617 23.752 21.1777C24.0613 21.5831 24.216 22.1271 24.216 22.8097C24.216 23.3537 24.1093 23.8284 23.896 24.2337C23.6933 24.6284 23.4053 24.9591 23.032 25.2257C22.6587 25.4817 22.2213 25.6737 21.72 25.8017C21.2187 25.9191 20.6747 25.9777 20.088 25.9777C19.512 25.9777 18.9467 25.9191 18.392 25.8017C17.848 25.6737 17.3307 25.4924 16.84 25.2577C16.3493 25.0231 15.8907 24.7297 15.464 24.3777L16.152 23.1617C16.3227 23.3431 16.5413 23.5244 16.808 23.7057C17.0853 23.8764 17.3947 24.0364 17.736 24.1857C18.088 24.3351 18.4667 24.4577 18.872 24.5537C19.2773 24.6391 19.6933 24.6817 20.12 24.6817C20.9307 24.6817 21.56 24.5377 22.008 24.2497C22.456 23.9511 22.68 23.5191 22.68 22.9537C22.68 22.5271 22.552 22.1857 22.296 21.9297C22.0507 21.6737 21.6827 21.4604 21.192 21.2897C20.7013 21.1191 20.104 20.9484 19.4 20.7777C18.632 20.5857 17.9867 20.3777 17.464 20.1537C16.9413 19.9191 16.5467 19.6151 16.28 19.2417C16.024 18.8684 15.896 18.3831 15.896 17.7857C15.896 17.0604 16.072 16.4471 16.424 15.9457C16.776 15.4444 17.2613 15.0657 17.88 14.8097C18.4987 14.5537 19.1973 14.4257 19.976 14.4257C20.488 14.4257 20.9627 14.4791 21.4 14.5857C21.848 14.6924 22.264 14.8417 22.648 15.0337C23.032 15.2257 23.384 15.4551 23.704 15.7217L23.032 16.8897Z" fill="white"/>
</svg>
