<svg width="40" height="41" viewBox="0 0 40 41" fill="none" xmlns="http://www.w3.org/2000/svg">
<rect y="0.397949" width="40" height="40" rx="20" fill="#3B1B7F"/>
<path d="M23.064 16.6659C22.904 16.4846 22.7173 16.3246 22.504 16.1859C22.2907 16.0366 22.0507 15.9086 21.784 15.8019C21.5173 15.6953 21.2293 15.6099 20.92 15.5459C20.6213 15.4819 20.3013 15.4499 19.96 15.4499C18.968 15.4499 18.2373 15.6419 17.768 16.0259C17.3093 16.3993 17.08 16.9113 17.08 17.5619C17.08 18.0099 17.1867 18.3619 17.4 18.6179C17.624 18.8739 17.9707 19.0819 18.44 19.2419C18.9093 19.4019 19.5067 19.5673 20.232 19.7379C21.0427 19.9086 21.7413 20.1113 22.328 20.3459C22.9147 20.5806 23.368 20.9006 23.688 21.3059C24.008 21.7006 24.168 22.2393 24.168 22.9219C24.168 23.4446 24.0667 23.8979 23.864 24.2819C23.6613 24.6659 23.3787 24.9859 23.016 25.2419C22.6533 25.4979 22.2213 25.6899 21.72 25.8179C21.2187 25.9353 20.6693 25.9939 20.072 25.9939C19.4853 25.9939 18.92 25.9353 18.376 25.8179C17.8427 25.6899 17.336 25.5086 16.856 25.2739C16.376 25.0286 15.928 24.7193 15.512 24.3459L16.072 23.4339C16.2747 23.6473 16.5147 23.8499 16.792 24.0419C17.08 24.2233 17.3947 24.3886 17.736 24.5379C18.088 24.6873 18.4613 24.8046 18.856 24.8899C19.2613 24.9646 19.6773 25.0019 20.104 25.0019C21.0107 25.0019 21.7147 24.8366 22.216 24.5059C22.728 24.1753 22.984 23.6846 22.984 23.0339C22.984 22.5646 22.856 22.1913 22.6 21.9139C22.344 21.6259 21.96 21.3913 21.448 21.2099C20.936 21.0286 20.3067 20.8526 19.56 20.6819C18.7707 20.5006 18.104 20.2979 17.56 20.0739C17.016 19.8499 16.6053 19.5566 16.328 19.1939C16.0613 18.8206 15.928 18.3299 15.928 17.7219C15.928 17.0179 16.0987 16.4259 16.44 15.9459C16.792 15.4553 17.272 15.0873 17.88 14.8419C18.488 14.5859 19.1867 14.4579 19.976 14.4579C20.4773 14.4579 20.9413 14.5113 21.368 14.6179C21.8053 14.7139 22.2053 14.8579 22.568 15.0499C22.9413 15.2419 23.288 15.4819 23.608 15.7699L23.064 16.6659Z" fill="white"/>
</svg>
