<svg width="40" height="41" viewBox="0 0 40 41" fill="none" xmlns="http://www.w3.org/2000/svg">
<rect y="0.881836" width="40" height="40" rx="20" fill="#33691E"/>
<path d="M23.032 17.4058C22.904 17.2565 22.7333 17.1125 22.52 16.9738C22.3067 16.8352 22.0667 16.7125 21.8 16.6058C21.5333 16.4885 21.24 16.3978 20.92 16.3338C20.6107 16.2592 20.2853 16.2218 19.944 16.2218C19.0693 16.2218 18.424 16.3872 18.008 16.7178C17.592 17.0485 17.384 17.5018 17.384 18.0778C17.384 18.4832 17.4907 18.8032 17.704 19.0378C17.9173 19.2725 18.2427 19.4645 18.68 19.6138C19.128 19.7632 19.6933 19.9178 20.376 20.0778C21.1653 20.2485 21.848 20.4565 22.424 20.7018C23 20.9472 23.4427 21.2778 23.752 21.6938C24.0613 22.0992 24.216 22.6432 24.216 23.3258C24.216 23.8698 24.1093 24.3445 23.896 24.7498C23.6933 25.1445 23.4053 25.4752 23.032 25.7418C22.6587 25.9978 22.2213 26.1898 21.72 26.3178C21.2187 26.4352 20.6747 26.4938 20.088 26.4938C19.512 26.4938 18.9467 26.4352 18.392 26.3178C17.848 26.1898 17.3307 26.0085 16.84 25.7738C16.3493 25.5392 15.8907 25.2458 15.464 24.8938L16.152 23.6778C16.3227 23.8592 16.5413 24.0405 16.808 24.2218C17.0853 24.3925 17.3947 24.5525 17.736 24.7018C18.088 24.8512 18.4667 24.9738 18.872 25.0698C19.2773 25.1552 19.6933 25.1978 20.12 25.1978C20.9307 25.1978 21.56 25.0538 22.008 24.7658C22.456 24.4672 22.68 24.0352 22.68 23.4698C22.68 23.0432 22.552 22.7018 22.296 22.4458C22.0507 22.1898 21.6827 21.9765 21.192 21.8058C20.7013 21.6352 20.104 21.4645 19.4 21.2938C18.632 21.1018 17.9867 20.8938 17.464 20.6698C16.9413 20.4352 16.5467 20.1312 16.28 19.7578C16.024 19.3845 15.896 18.8992 15.896 18.3018C15.896 17.5765 16.072 16.9632 16.424 16.4618C16.776 15.9605 17.2613 15.5818 17.88 15.3258C18.4987 15.0698 19.1973 14.9418 19.976 14.9418C20.488 14.9418 20.9627 14.9952 21.4 15.1018C21.848 15.2085 22.264 15.3578 22.648 15.5498C23.032 15.7418 23.384 15.9712 23.704 16.2378L23.032 17.4058Z" fill="white"/>
</svg>
