<svg width="40" height="41" viewBox="0 0 40 41" fill="none" xmlns="http://www.w3.org/2000/svg">
<rect y="0.365723" width="40" height="40" rx="20" fill="#3B1B7F"/>
<path d="M19.548 25.9457C18.6413 25.9457 17.8787 25.7911 17.26 25.4817C16.6413 25.1617 16.1453 24.7351 15.772 24.2017C15.3987 23.6577 15.1267 23.0444 14.956 22.3617C14.7853 21.6791 14.7 20.9751 14.7 20.2497V14.5057H16.14V20.2497C16.14 20.8044 16.1933 21.3484 16.3 21.8817C16.4173 22.4044 16.604 22.8737 16.86 23.2897C17.116 23.7057 17.4627 24.0364 17.9 24.2817C18.3373 24.5271 18.8813 24.6497 19.532 24.6497C20.1933 24.6497 20.7427 24.5271 21.18 24.2817C21.6173 24.0257 21.964 23.6897 22.22 23.2737C22.476 22.8471 22.6573 22.3724 22.764 21.8497C22.8813 21.3271 22.94 20.7937 22.94 20.2497V14.5057H24.38V20.2497C24.38 21.0177 24.2893 21.7484 24.108 22.4417C23.9373 23.1244 23.66 23.7271 23.276 24.2497C22.892 24.7724 22.3907 25.1884 21.772 25.4977C21.164 25.7964 20.4227 25.9457 19.548 25.9457Z" fill="white"/>
</svg>
